<svg width="24" height="23" viewBox="0 0 24 23" fill="none" xmlns="http://www.w3.org/2000/svg">
<path d="M7.03017 0.0804285C5.75336 0.138159 4.88143 0.333429 4.11918 0.62047C3.33029 0.915101 2.66165 1.31047 1.99636 1.95034C1.33107 2.5902 0.921389 3.23144 0.616106 3.9886C0.320663 4.7207 0.120501 5.55698 0.0641001 6.78127C0.00769954 8.00557 -0.00478059 8.3991 0.00145947 11.522C0.00769954 14.645 0.0220997 15.0365 0.0840203 16.2633C0.144981 17.4867 0.348023 18.322 0.647546 19.0527C0.955469 19.8087 1.36755 20.4493 2.03548 21.0871C2.70341 21.7249 3.37205 22.1166 4.16406 22.4096C4.92727 22.6923 5.80016 22.885 7.07745 22.9386C8.35474 22.9922 8.76587 23.0046 12.0237 22.9986C15.2815 22.9926 15.6916 22.9788 16.9715 22.9207C18.2515 22.8625 19.1186 22.6665 19.8813 22.3808C20.6702 22.0851 21.3391 21.6908 22.0042 21.0505C22.6692 20.4102 23.0787 19.7685 23.3837 19.0109C23.6794 18.2795 23.8803 17.443 23.9357 16.2198C23.9916 14.9923 24.0048 14.6004 23.9986 11.4779C23.9923 8.3554 23.9777 7.96394 23.917 6.73757C23.8563 5.51121 23.653 4.67837 23.3537 3.9472C23.0453 3.19119 22.6337 2.5511 21.966 1.91284C21.2983 1.27459 20.6282 0.882441 19.8379 0.5908C19.0742 0.307669 18.2018 0.114699 16.9245 0.0617985C15.6472 0.00889829 15.2361 -0.00467176 11.9771 0.00130826C8.71811 0.00728828 8.3101 0.0206283 7.03017 0.0804285ZM7.17033 20.8697C6.00032 20.821 5.36503 20.6347 4.94167 20.4787C4.38102 20.2717 3.98166 20.0215 3.55974 19.6211C3.13781 19.2206 2.87861 18.8365 2.65973 18.3004C2.49532 17.8947 2.29732 17.2866 2.2426 16.1653C2.18308 14.9534 2.1706 14.5896 2.16364 11.5193C2.15668 8.44901 2.16892 8.08561 2.22436 6.87327C2.27428 5.75294 2.46988 5.14344 2.63237 4.73795C2.84837 4.19997 3.10853 3.81794 3.52734 3.41383C3.94614 3.00972 4.34574 2.76086 4.90567 2.5511C5.32855 2.39286 5.96312 2.20472 7.13265 2.15136C8.39818 2.09386 8.77739 2.08236 11.9807 2.07569C15.184 2.06902 15.5642 2.08052 16.8302 2.13388C17.9992 2.18264 18.6355 2.36825 19.0581 2.52488C19.619 2.73188 20.0181 2.98051 20.4398 3.38255C20.8615 3.78459 21.1214 4.16616 21.3403 4.70391C21.5057 5.10802 21.702 5.71591 21.7572 6.83739C21.8174 8.05019 21.8311 8.41382 21.8369 11.4834C21.8426 14.553 21.8314 14.9176 21.7759 16.1294C21.7248 17.2507 21.5309 17.8597 21.3679 18.2659C21.1519 18.803 20.8915 19.1859 20.4725 19.5898C20.0534 19.9937 19.6543 20.2425 19.0941 20.4523C18.6717 20.6103 18.0364 20.7989 16.8679 20.8523C15.6023 20.9093 15.2231 20.9213 12.0186 20.9279C8.81411 20.9346 8.4361 20.9222 7.17057 20.8697M16.9531 5.35366C16.9535 5.62662 17.0385 5.89331 17.1971 6.12001C17.3558 6.3467 17.581 6.52322 17.8443 6.62723C18.1077 6.73125 18.3973 6.75809 18.6765 6.70436C18.9558 6.65063 19.2122 6.51874 19.4132 6.32537C19.6142 6.13201 19.7509 5.88586 19.806 5.61804C19.861 5.35023 19.8319 5.07279 19.7224 4.82081C19.6129 4.56883 19.4279 4.35363 19.1908 4.20242C18.9536 4.05122 18.675 3.97081 18.3902 3.97135C18.0084 3.97208 17.6425 4.11811 17.373 4.37733C17.1035 4.63655 16.9524 4.98774 16.9531 5.35366ZM5.83856 11.5115C5.84528 14.7729 8.60915 17.4108 12.0117 17.4045C15.4142 17.3983 18.1687 14.7499 18.1622 11.4885C18.1557 8.22706 15.3911 5.58849 11.9881 5.59493C8.58515 5.60137 5.83208 8.25052 5.83856 11.5115ZM8.00002 11.5073C7.99846 10.7492 8.23153 10.0076 8.66976 9.37632C9.108 8.74509 9.73172 8.25256 10.462 7.96103C11.1924 7.66951 11.9965 7.59207 12.7727 7.73851C13.549 7.88495 14.2625 8.24869 14.823 8.78374C15.3836 9.3188 15.766 10.0011 15.9218 10.7444C16.0777 11.4878 16.0001 12.2587 15.6988 12.9597C15.3975 13.6608 14.886 14.2604 14.2291 14.6829C13.5721 15.1054 12.7992 15.3317 12.0081 15.3332C11.4827 15.3342 10.9623 15.2361 10.4766 15.0444C9.99086 14.8527 9.54928 14.5712 9.17709 14.2159C8.80489 13.8606 8.50938 13.4385 8.30741 12.9738C8.10545 12.5091 8.001 12.0108 8.00002 11.5073Z" fill="white"/>
</svg>
