<svg width="26" height="23" viewBox="0 0 26 23" fill="none" xmlns="http://www.w3.org/2000/svg">
<path d="M5.95482 8.4864C5.47979 8.4864 5.09482 8.86824 5.09482 9.33942C5.09482 9.81059 5.47979 10.1942 5.95482 10.1942C6.42985 10.1942 6.81481 9.81234 6.81481 9.33942C6.81481 8.86649 6.42985 8.4864 5.95482 8.4864Z" fill="white"/>
<path d="M14.4577 8.39707C13.9456 8.39707 13.5306 8.80869 13.5306 9.31664C13.5306 9.8246 13.9456 10.2362 14.4577 10.2362C14.9698 10.2362 15.3848 9.8246 15.3848 9.31664C15.3848 8.80869 14.9698 8.39707 14.4577 8.39707Z" fill="white"/>
<path d="M19.2451 9.31664C19.2451 8.82095 19.6512 8.41808 20.151 8.41808C20.6507 8.41808 21.0569 8.82095 21.0569 9.31664C21.0569 9.81234 20.6507 10.2152 20.151 10.2152C19.6512 10.2152 19.2451 9.81234 19.2451 9.31664Z" fill="white"/>
<path fill-rule="evenodd" clip-rule="evenodd" d="M3.84464 0H22.1554C24.0025 0 25.5 1.48534 25.5 3.31749V14.0967C25.5 15.9289 24.0025 17.4142 22.1554 17.4142H15.7469L13.5465 22.5551C13.5465 22.5551 13.3964 23 13.0291 23C12.6636 23 12.5117 22.5551 12.5117 22.5551L10.3114 17.4142H3.84464C1.99749 17.4142 0.5 15.9289 0.5 14.0967V3.31749C0.5 1.48534 1.99749 0 3.84464 0ZM6.28866 11.5552C6.28866 11.5552 8.34241 11.4991 8.35301 9.5286H8.35124C8.35124 9.5286 8.62849 7.22527 6.41404 7.02033C6.41404 7.02033 5.39687 7.00982 5.04545 7.60536V5.26525C5.04545 5.26525 3.64332 5.28277 3.54973 5.26875V5.26525C3.54266 5.267 3.54973 5.26875 3.54973 5.26875V11.3888H5.04545V11.0332C5.04545 11.0332 5.494 11.5552 6.28866 11.5552ZM10.986 11.3993V7.2095C10.986 7.2095 11.1537 5.16191 8.81567 5.06732V6.52989C8.81567 6.52989 9.52204 6.68753 9.52204 7.25154V11.3993H10.986ZM12.0014 9.31841C12.0014 10.555 13.0998 11.5587 14.456 11.5587C15.8122 11.5587 16.9106 10.555 16.9106 9.31841C16.9106 8.08179 15.8122 7.07814 14.456 7.07814C13.0998 7.07814 12.0014 8.08179 12.0014 9.31841ZM20.3171 13.6868C22.4979 13.6868 22.4768 11.5587 22.4768 11.5587V7.13769H20.9916V7.58609C20.506 6.93801 19.7166 7.02208 19.7166 7.02208C17.7159 7.16747 17.6735 8.99612 17.6735 8.99612V9.66522C17.6735 11.4291 19.4959 11.5587 19.4959 11.5587C20.7815 11.5587 20.9598 10.9912 20.9598 10.9912C20.9704 12.3924 20.0539 12.3084 20.0539 12.3084H19.6531V13.6868H20.3171Z" fill="white"/>
</svg>
