<svg width="24" height="22" viewBox="0 0 24 22" fill="none" xmlns="http://www.w3.org/2000/svg">
<path fill-rule="evenodd" clip-rule="evenodd" d="M21.3764 0.656452C22.4086 1.01839 23.2227 2.0829 23.4982 3.43484C24 5.88677 24 11 24 11C24 11 24 16.115 23.4982 18.5652C23.2227 19.9171 22.4086 20.9816 21.3764 21.3435C19.5055 22 12 22 12 22C12 22 4.49591 22 2.62364 21.3435C1.59136 20.9816 0.777273 19.9171 0.501818 18.5652C0 16.1132 0 11 0 11C0 11 0 5.88677 0.501818 3.43484C0.777273 2.0829 1.59136 1.01839 2.62364 0.656452C4.49455 0 12 0 12 0C12 0 19.5055 0 21.3764 0.656452ZM15.6004 11.0007L9.60036 14.6673V7.33398L15.6004 11.0007Z" fill="white"/>
</svg>
